<svg width="24" height="28" viewBox="0 0 24 28" fill="none" xmlns="http://www.w3.org/2000/svg">
<g clip-path="url(#clip0_11_1771)">
<path d="M19.1692 20.6559L11.7079 24.8968C10.1114 23.9544 8.51486 22.99 6.96176 22.0477C5.40868 21.1052 3.80128 20.141 2.19388 19.1876C2.22646 17.3028 2.22646 15.418 2.23732 13.588C2.24818 11.758 2.24818 9.88419 2.28076 8.02132L11.9252 2.52036C13.5217 3.46275 15.1182 4.42707 16.6713 5.36946C17.5401 5.89546 18.4198 6.43239 19.3105 6.96935L21.4935 5.72011C18.3004 3.82438 15.1726 1.8848 11.936 0L0.119469 6.7173C0.0217216 11.3197 0.0868864 15.8344 0 20.4259C3.95333 22.727 7.74374 25.116 11.6862 27.4171L21.3197 21.9381L19.1692 20.6559Z" fill="black"/>
<path d="M14.4015 17.7853L11.7622 19.2865C10.9694 18.8153 10.1766 18.3332 9.40545 17.873C8.62348 17.4018 7.83064 16.9195 7.02694 16.4374C7.0378 15.495 7.0378 14.5527 7.04867 13.6431C7.04867 12.7336 7.05953 11.8021 7.07039 10.8817L11.8817 8.14216C12.6746 8.61335 13.4674 9.09551 14.2385 9.55574C14.3254 9.61054 14.4232 9.66533 14.5101 9.72011L16.6822 8.48185C15.0965 7.52851 13.5217 6.55323 11.9034 5.61084L4.90909 9.57766C4.85479 12.2953 4.88737 14.9581 4.83307 17.6756C7.16813 19.0344 9.40545 20.4481 11.7405 21.8069L16.5518 19.0674L14.4015 17.7853Z" fill="black"/>
<path d="M23.6335 7.01294L23.5249 20.7106L11.8821 13.7193L23.6335 7.01294Z" fill="black"/>
</g>
<defs>
<clipPath id="clip0_11_1771">
<rect width="23.7069" height="27.5" fill="white"/>
</clipPath>
</defs>
</svg>
