<svg xmlns="http://www.w3.org/2000/svg" version="1.1" viewBox="0 0 407.3 72.9">
  <g>
    <g id="Layer_1">
      <path class="graphic" fill="#469da0" d="M6.5,53.3c-.6,0-1.2.2-1.8.5s-.9.8-1.2,1.4c-.2.6-.3,1.2-.2,1.8s.4,1.2.9,1.6c.4.4,1,.8,1.6.9s1.3,0,1.8-.2c.6-.2,1.1-.7,1.4-1.2s.5-1.1.5-1.8-.3-1.7-.9-2.3-1.4-.9-2.2-.9h0ZM34.8,13.9c-.6,0-1.2.2-1.8.5-.5.4-.9.8-1.2,1.4-.2.6-.3,1.2-.2,1.8s.4,1.2.9,1.6c.4.4,1,.7,1.6.9.6.1,1.3,0,1.8-.2.6-.2,1.1-.7,1.4-1.2s.5-1.1.5-1.8-.3-1.7-.9-2.3-1.4-.9-2.3-.9h0ZM41.4,43.4c0-4.3-1.7-8.5-4.8-11.5-3.1-3.1-7.2-4.8-11.5-4.8h-8.6c-.8,0-1.7.3-2.3.9s-.9,1.4-.9,2.3.3,1.7.9,2.3,1.4.9,2.3.9h8.6c2.6,0,5.2,1.1,7,2.9s2.9,4.4,2.9,7-1,5.2-2.9,7c-1.9,1.9-4.4,2.9-7,2.9h-8.2c-.8,0-1.7.3-2.3.9s-.9,1.4-.9,2.3.3,1.7.9,2.3,1.4.9,2.3.9h8.2c4.3,0,8.5-1.7,11.5-4.8,3.1-3.1,4.8-7.2,4.8-11.5h0ZM25,46.6h-8.7c-4.3,0-8.5-1.7-11.5-4.8-3.1-3.1-4.8-7.2-4.8-11.5s1.7-8.5,4.8-11.5,7.2-4.8,11.5-4.8h8.2c.8,0,1.7.3,2.3.9.6.6.9,1.4.9,2.3s-.3,1.7-.9,2.3c-.6.6-1.4.9-2.3.9h-8.2c-2.6,0-5.2,1.1-7,2.9s-2.9,4.4-2.9,7,1,5.2,2.9,7,4.4,2.9,7,2.9h8.6c.8,0,1.7.3,2.3.9s.9,1.4.9,2.3-.3,1.7-.9,2.3-1.4.9-2.3.9h0Z"/>
      <path fill="#192124" d="M83.6,59.7c-4.2,0-7.8-.9-10.9-2.7-3-1.8-5.4-4.4-7-7.7-1.7-3.3-2.5-7.1-2.5-11.4s.8-8.1,2.5-11.4c1.7-3.3,4-5.9,7-7.7,3.1-1.8,6.7-2.8,10.9-2.8s9,1.2,12.2,3.6,5.1,5.8,6,10.1h-7.1c-.6-2.5-1.8-4.4-3.6-5.8s-4.3-2.2-7.4-2.2-7.6,1.4-10,4.3c-2.5,2.9-3.7,6.8-3.7,11.8s1.2,8.9,3.7,11.7,5.8,4.3,10,4.3,5.6-.7,7.4-2c1.9-1.4,3.1-3.2,3.6-5.6h7.1c-.8,4.2-2.8,7.5-6,9.8-3.1,2.4-7.2,3.6-12.2,3.6h0Z"/>
      <path fill="#192124" d="M108.6,59v-29.9h5.7l.5,5.7c1-2,2.5-3.5,4.4-4.6,1.9-1.2,4.2-1.7,6.8-1.7v6.7h-1.8c-1.8,0-3.4.3-4.8.9-1.4.6-2.5,1.5-3.3,3-.8,1.4-1.2,3.3-1.2,5.7v14.3h-6.4Z"/>
      <path fill="#192124" d="M144.7,59.7c-2.9,0-5.6-.6-7.9-1.9-2.3-1.3-4-3.2-5.3-5.5-1.3-2.3-1.9-5-1.9-8.1s.6-5.9,1.9-8.3c1.3-2.4,3.1-4.2,5.3-5.5,2.3-1.3,5-2,8-2s5.5.7,7.7,2c2.2,1.3,3.9,3,5.1,5.2,1.2,2.2,1.8,4.6,1.8,7.2s0,.8,0,1.3c0,.4,0,.9,0,1.5h-23.3c.2,2.9,1.1,5.1,2.8,6.6,1.7,1.5,3.7,2.2,6,2.2s3.3-.4,4.5-1.2c1.2-.8,2.2-2,2.8-3.4h6.4c-.8,2.8-2.4,5.2-4.8,7-2.4,1.9-5.3,2.8-8.9,2.8h0ZM144.7,33.6c-2.1,0-4,.6-5.7,1.9-1.7,1.2-2.7,3.1-3,5.7h16.9c-.1-2.3-.9-4.2-2.5-5.5-1.5-1.4-3.4-2-5.7-2h0Z"/>
      <path fill="#192124" d="M179.7,59.7c-2.9,0-5.5-.7-7.7-2s-3.9-3.2-5.2-5.6c-1.2-2.4-1.9-5.1-1.9-8.1s.6-5.7,1.9-8c1.2-2.4,3-4.2,5.2-5.5,2.3-1.4,4.8-2,7.7-2s4.5.5,6.2,1.4c1.8.9,3.2,2.2,4.2,3.9V15.6h6.4v43.4h-5.7l-.7-4.6c-1,1.4-2.3,2.7-4,3.7-1.7,1.1-3.9,1.6-6.5,1.6h0ZM180.8,54.1c2.7,0,5-.9,6.7-2.8,1.8-1.9,2.7-4.3,2.7-7.3s-.9-5.4-2.7-7.3c-1.7-1.9-4-2.8-6.7-2.8s-5,.9-6.8,2.8c-1.8,1.8-2.7,4.3-2.7,7.3s.4,3.7,1.2,5.2c.8,1.5,1.9,2.7,3.3,3.6,1.5.8,3.1,1.3,4.9,1.3h0Z"/>
      <path fill="#192124" d="M208.3,23.4c-1.2,0-2.2-.4-3-1.1-.8-.8-1.1-1.7-1.1-2.8s.4-2,1.1-2.8c.8-.8,1.8-1.1,3-1.1s2.2.4,3,1.1c.8.7,1.2,1.6,1.2,2.8s-.4,2.1-1.2,2.8c-.8.7-1.8,1.1-3,1.1ZM205.1,59v-29.9h6.4v29.9h-6.4Z"/>
      <path fill="#192124" d="M232.6,59c-2.9,0-5.3-.7-7-2.1-1.7-1.4-2.6-4-2.6-7.7v-14.8h-5.1v-5.4h5.1l.8-7.6h5.6v7.6h8.5v5.4h-8.5v14.8c0,1.6.3,2.8,1,3.4.7.6,2,.9,3.7.9h3.4v5.4h-5Z"/>
      <path fill="#192124" d="M258.6,59.7c-3.1,0-5.8-.5-8.2-1.6-2.3-1.1-4.2-2.6-5.5-4.6-1.3-2-2-4.4-2-7.2h6.8c0,2.2.8,4.2,2.4,5.7,1.5,1.6,3.7,2.3,6.5,2.3s4.4-.6,5.7-1.7c1.4-1.2,2.1-2.7,2.1-4.6s-.3-2.7-1-3.6c-.6-.9-1.6-1.7-2.7-2.3-1.1-.6-2.4-1.1-3.9-1.6-1.5-.5-3.1-1-4.7-1.6-3.3-1.1-5.7-2.5-7.4-4.2-1.6-1.7-2.4-4-2.4-6.8,0-2.4.5-4.4,1.6-6.2,1.2-1.8,2.8-3.1,4.8-4.1,2.1-1,4.5-1.5,7.3-1.5s5.1.5,7.2,1.5c2.1,1,3.7,2.4,4.9,4.2,1.2,1.8,1.8,3.8,1.8,6.2h-6.8c0-1.1-.3-2.1-.8-3.1-.6-1-1.4-1.8-2.5-2.5s-2.4-1-4-1c-2,0-3.7.5-5,1.5-1.3,1-1.9,2.5-1.9,4.3s.5,2.9,1.4,3.8c1,.9,2.3,1.6,4,2.2,1.7.6,3.6,1.2,5.8,2,2.1.7,4,1.5,5.6,2.5,1.7,1,3,2.2,3.9,3.8,1,1.6,1.5,3.6,1.5,6s-.5,4.1-1.6,6c-1.1,1.8-2.7,3.3-4.9,4.5-2.2,1.1-4.9,1.7-8,1.7h0Z"/>
      <path fill="#192124" d="M290.1,59.7c-2.5,0-4.6-.4-6.3-1.3s-2.9-1.9-3.7-3.3c-.8-1.4-1.2-2.9-1.2-4.6,0-2.9,1.1-5.2,3.4-6.9,2.3-1.7,5.5-2.5,9.7-2.5h7.9v-.5c0-2.3-.6-4.1-1.9-5.2-1.2-1.2-2.9-1.7-4.9-1.7s-3.3.4-4.7,1.3c-1.3.8-2.1,2.1-2.4,3.8h-6.4c.2-2.2.9-4,2.2-5.5,1.3-1.6,2.9-2.8,4.8-3.6,2-.8,4.1-1.3,6.5-1.3,4.2,0,7.4,1.1,9.7,3.3,2.3,2.2,3.4,5.1,3.4,8.9v18.4h-5.6l-.5-5.1c-.8,1.6-2.1,3-3.7,4.2-1.6,1.1-3.7,1.7-6.3,1.7h0ZM291.4,54.5c1.7,0,3.2-.4,4.4-1.2,1.2-.8,2.1-1.9,2.8-3.3.7-1.4,1.1-2.9,1.3-4.5h-7.1c-2.5,0-4.4.4-5.4,1.3-1,.9-1.6,2-1.6,3.3s.5,2.5,1.5,3.3c1,.8,2.5,1.1,4.2,1.1h0Z"/>
      <path fill="#192124" d="M321.1,59l-11.2-29.9h6.7l8.3,23.8,8.3-23.8h6.7l-11.2,29.9h-7.6Z"/>
      <path fill="#192124" d="M353.6,59l-11.2-29.9h6.7l8.3,23.8,8.3-23.8h6.7l-11.2,29.9h-7.6Z"/>
      <path fill="#192124" d="M381.2,72.2l7.2-15.7h-1.8l-11.8-27.4h7l9.2,22.1,9.6-22.1h6.8l-19.3,43.1h-6.8Z"/>
    </g>
  </g>
</svg>
