<svg width="60" height="64" viewBox="0 0 60 64" fill="none" xmlns="http://www.w3.org/2000/svg">
<path fill-rule="evenodd" clip-rule="evenodd" d="M23.318 44.92H35.699C38.2784 44.92 40.2383 42.9323 40.2383 40.5456C40.2383 38.161 38.1748 36.1734 35.699 36.1734H23.318C15.4763 36.1734 9.07857 30.0132 9.07857 22.46C9.07857 14.9068 15.4763 8.74446 23.318 8.74446H35.0795C37.5553 8.74446 39.6188 6.75693 39.6188 4.37225C39.6188 1.98757 37.5553 0 35.0795 0H23.318C10.4211 0 0 10.0376 0 22.46C0 34.8822 10.4211 44.92 23.318 44.92ZM45.2919 4.37229C45.2919 1.98761 47.3553 4.08542e-05 49.8311 4.08542e-05C52.4105 4.08542e-05 54.474 1.98761 54.3725 4.37229C54.3725 6.75696 52.309 8.74454 49.8311 8.74454C47.3553 8.74454 45.2919 6.75696 45.2919 4.37229ZM5.05611 59.6268C5.05611 57.2421 7.11962 55.2545 9.59542 55.2545C12.0733 55.2545 14.1368 57.2421 14.1368 59.6268C14.1368 62.0114 12.0733 63.999 9.59542 63.999C7.11962 63.999 5.05611 62.0114 5.05611 59.6268ZM59.4286 41.54C59.4286 29.1177 49.0075 19.0821 36.1106 19.0821H23.7296C21.2539 19.0821 19.1903 21.0697 19.1903 23.4543C19.1903 25.839 21.2539 27.8266 23.7296 27.8266H36.1106C43.9524 27.8266 50.3479 33.9889 50.3479 41.54C50.3479 49.0932 43.9524 55.2554 36.1106 55.2554H24.3491C21.8733 55.2554 19.8098 57.243 19.8098 59.6277C19.8098 62.0124 21.8733 64 24.3491 64H36.1106C48.9039 64 59.4286 53.9623 59.4286 41.54Z" fill="#64CCC9"/>
</svg>
