<svg version="1.1" id="Layer_1" xmlns="http://www.w3.org/2000/svg" x="0px" y="0px" viewBox="0 0 520.5 145.8">
  <g>
    <g>
      <path
        d="M89.2,129.2c-11.7,9.3-24.7,12.3-38.9,9.8c-10.8-1.9-20.2-6.8-27.6-15C7.8,107.2,5.9,80.3,18.9,61.9 c3.5-5,8.2-9.5,13.3-12.8c5.1-3.3,11.2-5.6,17.1-6.8c6-1.2,12.5-1.3,18.5-0.3c6,0.9,11.7,3.7,17.8,5.8c0-12.2,0-24.8,0-37.5 c8.5,0,16.6,0,24.9,0c0,42.1,0,84.3,0,126.9c-5.7,0-11.5,0-17.2-0.1c-0.6,0-1.4-1-1.7-1.7C90.8,133.5,90.1,131.6,89.2,129.2z M61.3,116.2c14.9,0.2,26.1-10.5,26.3-25.1c0.2-15-10.6-26.3-25.3-26.5C47.4,64.4,36.1,75,36,89.5C35.8,104.9,46.3,116,61.3,116.2 z"></path>
      <path
        d="M330.7,10.1c8.6,0,16.4,0,24.8,0c0,13.9,0,27.7,0,42.3c1.5-1.1,2.4-1.8,3.2-2.4c12.4-8.8,25.8-11.4,40-5.6 c11.1,4.4,16.6,13.7,18.8,24.9c0.7,3.3,0.9,6.8,0.9,10.2c0.1,17.8,0,35.5,0.1,53.3c0,3.1-0.9,4-3.9,3.9 c-6.8-0.2-13.6-0.1-20.9-0.1c0-1.5,0-2.8,0-4.1c0-15.4,0-30.9,0-46.3c0-2.5-0.3-5.1-0.5-7.6c-1.3-14.3-12.4-17.6-23-14.4 c-8.7,2.7-12.7,9.3-14,17.7c-0.6,4.4-0.6,8.8-0.6,13.3c-0.1,12.3,0,24.7,0,37c0,1.3,0,2.6,0,4.3c-8,0-15.7,0-23.3-0.1 c-0.5,0-1.2-1-1.5-1.7c-0.3-0.8-0.1-1.8-0.1-2.6c0-39.3,0-78.6,0-118C330.7,13,330.7,11.7,330.7,10.1z"></path>
      <path
        d="M227.2,90.4c-0.1,28.3-22,49.4-51.1,49.2c-28.8-0.2-50.5-21.7-50.4-49.7c0.2-28,22.1-49,51-49 C205.6,41,227.3,62.3,227.2,90.4z M176.5,64.4c-14.8,0-25.4,10.8-25.3,25.9c0,15.1,10.6,25.8,25.4,25.8 c14.8,0,25.3-10.8,25.3-25.9C201.8,75,191.4,64.4,176.5,64.4z"></path>
      <path
        d="M313.3,71.8c-8,0-15.6,0-23.3,0c-3.8-9.7-11.3-13.2-21-10c-4.4,1.4-6.8,4.3-6.8,8c0,3.2,1.9,5.9,6.4,7.1 c6.6,1.8,13.4,3,20.1,4.5c2.8,0.6,5.6,1.3,8.3,2.3c18.7,6.6,24.3,29.1,10.9,43.9c-6.1,6.7-14,10-22.8,11.3 c-11.1,1.6-22,0.8-32.1-4.5c-10.2-5.4-16.8-16.4-16.2-27.4c7.8,0,15.6,0,23.7,0c0.2,0.7,0.5,1.5,0.7,2.3c0.8,3.6,3,6.3,6.2,7.8 c5.4,2.5,11,2.7,16.5,0.6c3.6-1.4,6.2-3.9,6.3-8.2c0.1-4.3-2.7-6.4-6.1-7.3c-6.3-1.7-12.8-2.9-19.1-4.3c-6.8-1.5-13.4-3.4-18.8-8 c-12.2-10.5-10.7-31.1,3.1-41.2c8.4-6.1,18-7.9,28.1-7.6c9.4,0.3,18.3,2.5,25.7,8.8C309.7,55.5,312.8,62.8,313.3,71.8z"></path>
      <path
        d="M439,53.5c8.2,0,16.2,0,24.5,0c0,27.7,0,55.2,0,83c-8.1,0-16.2,0-24.5,0C439,108.8,439,81.2,439,53.5z"></path>
      <path
        d="M510,53.5c0,27.7,0,55.1,0,82.9c-8.2,0-16.2,0-24.5,0c0-27.6,0-55.2,0-82.9C493.7,53.5,501.7,53.5,510,53.5z"></path>
      <path
        d="M497.8,6.7c9.2,0,16.6,7.3,16.5,16.4c-0.1,8.7-7.5,16-16.3,16c-9.1,0-16.6-7.4-16.5-16.5C481.6,13.9,488.9,6.8,497.8,6.7z "></path>
      <path
        d="M435.1,22.7c0.1-9.1,7.2-16.1,16.4-16c9,0,16.3,7.4,16.2,16.4c-0.1,8.9-7.5,16.2-16.5,16.1 C442.1,39.1,435,31.9,435.1,22.7z"></path>
    </g>
  </g>
</svg>
