<svg width="40" height="40" viewBox="0 0 40 40" fill="none" xmlns="http://www.w3.org/2000/svg">
<path d="M25.207 17.7373H21.4484V29.5032H25.207V17.7373Z" fill="#7C004B"/>
<path d="M23.351 14.9199C23.8375 14.92 24.3132 14.7758 24.7178 14.5056C25.1224 14.2354 25.4378 13.8512 25.624 13.4017C25.8103 12.9522 25.8591 12.4576 25.7642 11.9804C25.6694 11.5032 25.4351 11.0648 25.0911 10.7207C24.7471 10.3766 24.3088 10.1423 23.8316 10.0473C23.3544 9.95235 22.8598 10.001 22.4102 10.1872C21.9607 10.3734 21.5765 10.6887 21.3062 11.0932C21.0358 11.4978 20.8915 11.9734 20.8915 12.46C20.8915 12.783 20.955 13.1028 21.0786 13.4013C21.2022 13.6997 21.3833 13.9709 21.6117 14.1994C21.8401 14.4278 22.1112 14.609 22.4097 14.7326C22.7081 14.8563 23.0279 14.9199 23.351 14.9199Z" fill="#7C004B"/>
<path d="M16.4604 10.0015C15.9739 10.0014 15.4982 10.1456 15.0936 10.4158C14.6889 10.6861 14.3736 11.0703 14.1873 11.5198C14.001 11.9693 13.9523 12.464 14.0472 12.9412C14.1421 13.4184 14.3764 13.8568 14.7204 14.2009C15.0645 14.5449 15.5029 14.7792 15.9801 14.8741C16.4573 14.969 16.952 14.9203 17.4015 14.734C17.851 14.5478 18.2352 14.2324 18.5055 13.8278C18.7757 13.4231 18.9199 12.9475 18.9198 12.4609C18.9199 12.1379 18.8563 11.818 18.7328 11.5196C18.6092 11.2212 18.428 10.95 18.1996 10.7216C17.9713 10.4933 17.7001 10.3121 17.4017 10.1885C17.1033 10.065 16.7834 10.0014 16.4604 10.0015Z" fill="#7C004B"/>
<path d="M18.3444 17.7373H14.5859V29.5032H18.3444V17.7373Z" fill="#7C004B"/>
</svg>
