<svg xmlns="http://www.w3.org/2000/svg" version="1.1" viewBox="0 0 143 43">
  <defs>
    <linearGradient id="linear-gradient" x1="62.9" y1="67.1" x2="19.2" y2="34.2" gradientTransform="translate(0 70) scale(1 -1)" gradientUnits="userSpaceOnUse">
      <stop offset="0" stop-color="#1256fe"/>
      <stop offset="1" stop-color="#00cc8b"/>
    </linearGradient>
  </defs>
  <g>
    <g id="Layer_1">
      <path fill="#00222b" fill-rule="evenodd" d="M66.1,30.2h2.8v12.7h-2.8v-5h-5.1v5h-2.8v-12.7h2.8v5.3h5.1v-5.3Z"/>
      <path fill="#00222b" fill-rule="evenodd" d="M73.9,38.1c0,.8.2,1.5.7,2,.5.5,1,.8,1.7.8s1.3-.3,1.7-.8c.5-.5.7-1.2.7-2s-.2-1.5-.7-2c-.5-.5-1-.8-1.7-.8s-1.3.3-1.7.8-.7,1.2-.7,2ZM81.5,38.1c0,1.4-.5,2.6-1.5,3.6-1,1-2.2,1.5-3.7,1.5s-2.7-.5-3.7-1.5c-1-1-1.5-2.2-1.5-3.6s.5-2.6,1.5-3.6c1-1,2.2-1.5,3.7-1.5s2.7.5,3.7,1.5c1,1,1.5,2.2,1.5,3.6Z"/>
      <path fill="#00222b" fill-rule="evenodd" d="M92.5,37.7v5.3h-2.7v-5.3c0-.8-.1-1.3-.4-1.7-.2-.4-.6-.5-1.1-.5s-1,.2-1.4.6c-.4.4-.6,1-.6,1.7v5.3h-2.7v-9.8h2.7v1.1c.8-.8,1.6-1.3,2.6-1.3s1.2.2,1.7.5c.5.4.9.8,1.1,1.3.4-.6.9-1.1,1.5-1.4.6-.3,1.3-.5,1.9-.5,1.2,0,2.1.3,2.8,1,.7.7,1.1,1.7,1.1,3v5.9h-2.7v-5.3c0-1.5-.6-2.3-1.7-2.3s-1,.2-1.4.6c-.4.4-.6,1-.6,1.7Z"/>
      <path fill="#00222b" fill-rule="evenodd" d="M107.3,35.7c-.4-.3-.8-.5-1.4-.5s-1,.2-1.5.5c-.4.3-.7.8-.8,1.3h4.3c0-.6-.3-1-.7-1.3ZM109.9,41.5c-1.1,1-2.4,1.6-3.9,1.6s-2.7-.5-3.7-1.4c-1-.9-1.5-2.1-1.5-3.7s.5-2.8,1.5-3.7c1-.9,2.2-1.4,3.5-1.4s2.5.4,3.4,1.2c.9.8,1.4,1.9,1.4,3.3v1.5h-7.1c0,.5.4,1,.8,1.3.5.3,1,.5,1.6.5,1,0,1.7-.3,2.4-1l1.5,1.7Z"/>
      <path fill="#00222b" fill-rule="evenodd" d="M112.8,38.7h6.5v-2.4h-6.5v2.4Z"/>
      <path fill="#00222b" fill-rule="evenodd" d="M121.6,43h2.7v-9.8h-2.7v9.8ZM121.8,31.9c-.3-.3-.5-.7-.5-1.1s.2-.8.5-1.1c.3-.3.7-.5,1.1-.5s.8.2,1.1.5c.3.3.5.7.5,1.1s-.2.8-.5,1.1c-.3.3-.7.5-1.1.5s-.8-.2-1.1-.5Z"/>
      <path fill="#00222b" fill-rule="evenodd" d="M129.6,37.5v5.5h-2.7v-9.8h2.7v1.1c.8-.8,1.8-1.3,2.8-1.3s1.9.4,2.6,1.1c.7.7,1,1.7,1,2.9v5.9h-2.7v-5.5c0-1.5-.6-2.3-1.7-2.3s-1,.2-1.4.6c-.4.4-.6,1-.6,1.7Z"/>
      <path fill="url(#linear-gradient)" fill-rule="evenodd" d="M15.7,38.9L0,25.7l4.8-5.7,10.3,8.7L41.5.8l27,24.5h-10.9s-16-14.1-16-14.1l-25.9,27.7Z"/>
      <path fill="#06cd9e" fill-rule="evenodd" d="M38.5,43h6.1v-12.7h-6.1v12.7Z"/>
    </g>
  </g>
</svg>
