<svg width="64" height="38" viewBox="0 0 64 38" fill="none" xmlns="http://www.w3.org/2000/svg">
<g clip-path="url(#clip0_939_985)">
<path d="M10.1757 37.2517V26.7405L13.455 23.2207L20.93 37.2517H32.6007L20.5442 16.5185L32.3595 3.5H20.1584L14.3713 10.5879C11.7671 13.722 10.3203 16.8078 8.97 22.7385H8.53596L9.78983 14.6863L10.1274 3.5H0V37.2517H10.1757Z" fill="black"/>
<path d="M43.7333 37.2513V11.0215H43.3959C42.19 12.1787 40.3574 12.7091 38.6214 12.7091C36.8853 12.7091 35.0528 12.1787 33.847 11.0215H33.5094V37.2513H43.7333Z" fill="black"/>
<path d="M56.9785 36.8754C59.7274 36.8754 61.9939 36.1039 63.6817 34.5127V26.5087H63.1512C62.6206 27.3284 61.9939 27.907 60.8846 27.907C58.9076 27.907 58.3288 26.5087 58.3288 24.3871V13.5384L63.6817 14.3098V7.36661H58.3288V2.54492H50.6124C50.6124 6.54692 48.8764 7.6559 44.9703 7.6559V13.4419H48.1532V27.5213C48.1532 33.0179 51.2395 36.8754 56.9785 36.8754Z" fill="black"/>
<path d="M44.4083 5.73624C44.4083 8.62925 42.19 11.0401 38.6214 11.0401C35.1007 11.0401 32.8343 8.62925 32.8343 5.73624C32.8343 2.79499 35.149 0.335938 38.6214 0.335938C42.0935 0.335938 44.4083 2.79499 44.4083 5.73624Z" fill="black"/>
</g>
<defs>
<clipPath id="clip0_939_985">
<rect width="64" height="37.4208" fill="white"/>
</clipPath>
</defs>
</svg>
