<svg xmlns="http://www.w3.org/2000/svg" version="1.1" viewBox="0 0 263.7 110.7">
  <g>
    <g id="Layer_1">
      <path d="M8.5,88.9v-46s-7.7,0-7.7,0v-12h7.7v-11.2c0-1.2.9-2.1,2-2.3l18.6-1.8v15.3s9.9,0,9.9,0l-1.4,12h-8.5v46H8.5Z"/>
      <path d="M43,88.9V31h13.6l1.6,4.8c.3,1,1.7,1.3,2.4.5,3.5-3.8,8.4-5.4,13-5.4h3.5v15.5h-3.5c-3.3,0-6.4,1.1-8.4,3-1.1,1-1.6,2.5-1.6,3.9v35.6s-20.6,0-20.6,0h0Z"/>
      <path d="M103.6,90.5c-13.5,0-21.5-8.6-21.5-22.9V30.9h20.6v34c0,4.2,2.6,7,6.6,7s5-1.3,6.1-2.5c.9-1,1.4-2.3,1.4-3.7V30.9h20.6v58h-13.5l-1.7-4.2c-.4-.9-1.6-1.2-2.3-.4-4.2,4.2-10.2,6.2-16.1,6.2Z"/>
      <path class="letterY" fill="#ff829a" d="M173.2,26c-2,0-4-.5-6-1.4-2.3-1.1-4.2-3-5.3-5.3-2-4.3-1.8-9,.6-12.8,2.3-3.7,6.3-5.8,10.7-5.8s4,.5,6,1.4c2.3,1.1,4.2,3,5.3,5.3,2,4.3,1.8,9-.6,12.8-2.3,3.7-6.3,5.8-10.6,5.8h0Z"/>
      <path d="M230.1,90.5c-13.5,0-21.5-8.6-21.5-22.9V30.9h20.6v34c0,4.2,2.6,7,6.6,7s5-1.3,6.1-2.5c.9-1,1.4-2.3,1.4-3.7V30.9h20.6v58h-13.5l-1.7-4.2c-.4-.9-1.6-1.2-2.3-.4-4.2,4.2-10.2,6.2-16.1,6.2h0Z"/>
      <path class="letterY" fill="#ff829a" d="M205.4,30.9h-22.8l-7.9,32.3c-.4,1.4-2.4,1.4-2.8,0l-8-32.3h-23.2l16.8,51.1,1,3.2h7.4c.9,0,1.6.9,1.4,1.8l-6.7,23.7h19.3s25.5-79.8,25.5-79.8Z"/>
    </g>
  </g>
</svg>
