<svg width="1024" height="1024" viewBox="0 0 1024 1024" fill="none" xmlns="http://www.w3.org/2000/svg">
<rect width="1024" height="1024" fill="#16022A"/>
<g clip-path="url(#clip0_8258_13173)">
<path d="M511.743 296.248C496.888 296.248 481.973 292.897 467.423 286.297C450.063 278.421 436.07 264.71 428.037 247.677C413.085 215.993 414.742 182.123 432.592 154.744C449.959 128.116 479.543 112.212 511.743 112.212C526.598 112.212 541.505 115.556 556.063 122.157C573.423 130.04 587.416 143.751 595.449 160.777C610.408 192.461 608.751 226.338 590.893 253.724C573.534 280.344 543.95 296.248 511.765 296.248H511.75H511.743Z" fill="#FF829A"/>
<path d="M750.489 331.966H580.951L522.244 567.495C519.628 577.986 504.424 578.001 501.786 567.517L442.506 331.966H270.242L395.199 704.3L402.964 727.766H457.785C464.778 727.766 469.824 734.323 467.914 740.916L417.909 913.507L561.251 913.536L750.489 331.966Z" fill="#FF829A"/>
</g>
<defs>
<clipPath id="clip0_8258_13173">
<rect width="479" height="798" fill="white" transform="translate(272 113)"/>
</clipPath>
</defs>
</svg>
