<svg width="72" height="47" viewBox="0 0 72 47" fill="none" xmlns="http://www.w3.org/2000/svg">
<path d="M49.7639 12.1995C49.8756 12.1995 49.9875 12.2008 50.0993 12.2033C50.2111 12.2008 50.323 12.1995 50.4348 12.1995C52.2702 12.1995 53.7079 12.6582 54.7479 13.5754C55.8492 14.4316 56.3998 15.8074 56.3998 17.7031V39.3505C56.3998 40.8792 56.5833 42.1328 56.9505 43.1113C57.3787 44.0285 57.9599 44.7623 58.694 45.3127C59.4282 45.8631 60.3153 46.2299 61.3553 46.4134C62.4568 46.5969 63.6802 46.6886 65.0263 46.6886C66.433 46.6886 67.779 46.5969 69.0637 46.4134C70.4097 46.2299 71.3886 46.0465 72.0001 45.8631V17.1528C72.0001 11.7715 70.1348 7.58262 66.4026 4.58625C62.6704 1.5287 57.3481 0 50.4348 0C50.3227 0 50.2108 0.000360661 50.0993 0.00108042C49.9878 0.000360661 49.8759 0 49.7639 0C42.8506 0 37.5279 1.5287 33.7959 4.58625C30.064 7.58262 28.198 11.7715 28.198 17.1528V30.826C28.8098 31.0094 29.7887 31.1929 31.1346 31.3763C32.4194 31.5598 33.7654 31.6515 35.1725 31.6515C36.5184 31.6515 37.742 31.5598 38.8433 31.3763C39.8833 31.1929 40.7704 30.826 41.5046 30.2756C42.2388 29.7252 42.82 28.9914 43.2482 28.0742C43.6153 27.0958 43.7988 25.8422 43.7988 24.3134V17.7031C43.7988 15.8074 44.3494 14.4316 45.4507 13.5754C46.4907 12.6582 47.9285 12.1995 49.7639 12.1995Z" fill="#24282B"/>
<path d="M22.2368 34.489C22.125 34.489 22.0131 34.4877 21.9012 34.4852C21.7895 34.4877 21.6776 34.489 21.5658 34.489C19.7304 34.489 18.2927 34.0304 17.2527 33.1131C16.1514 32.2571 15.6008 30.8811 15.6008 28.9855V7.33804C15.6008 5.80927 15.4173 4.55573 15.0502 3.57736C14.6219 2.66009 14.0407 1.92623 13.3066 1.3759C12.5724 0.825567 11.6853 0.458632 10.6453 0.275164C9.54402 0.0916972 8.32042 0 6.97448 0C5.56733 0 4.22139 0.0916972 2.93662 0.275164C1.59067 0.458632 0.611798 0.6421 0 0.825568V29.5359C0 34.9171 1.86598 39.1059 5.59793 42.1023C9.32989 45.1598 14.6525 46.6886 21.5658 46.6886C21.6779 46.6886 21.7898 46.6882 21.9012 46.6874C22.0128 46.6882 22.1247 46.6886 22.2368 46.6886C29.15 46.6886 34.4727 45.1598 38.2046 42.1023C41.9365 39.1059 43.8025 34.9171 43.8025 29.5359V15.8626C43.1907 15.6791 42.2119 15.4957 40.8659 15.3122C39.5811 15.1287 38.2352 15.037 36.8281 15.037C35.4822 15.037 34.2586 15.1287 33.1573 15.3122C32.1173 15.4957 31.2302 15.8626 30.496 16.4129C29.7618 16.9633 29.1806 17.6971 28.7524 18.6143C28.3853 19.5928 28.2018 20.8464 28.2018 22.3752V28.9855C28.2018 30.8811 27.6511 32.2571 26.5499 33.1131C25.5099 34.0304 24.0722 34.489 22.2368 34.489Z" fill="#24282B"/>
</svg>
