<?xml version="1.0" encoding="UTF-8"?>
<svg xmlns="http://www.w3.org/2000/svg" version="1.1" viewBox="0 0 139.2 35">
  <!-- Generator: Adobe Illustrator 28.6.0, SVG Export Plug-In . SVG Version: 1.2.0 Build 709)  -->
  <g>
    <g id="Layer_1">
      <path fill="#000" d="M53.3,34.1c-.4,0-1,.2-1.7.3-.7.1-1.5.2-2.2.2s-1.5,0-2.1-.2c-.6-.1-1.1-.3-1.5-.6-.4-.3-.7-.7-1-1.2-.2-.6-.3-1.3-.3-2.1V.5c.4,0,.9-.2,1.7-.3.8-.1,1.5-.2,2.3-.2s1.4,0,2,.2c.6.1,1.1.3,1.6.6.4.3.7.7.9,1.3.2.5.4,1.2.4,2.1v29.9Z"/>
      <path fill="#000" d="M83.5,21.6c0,2.1-.3,4-1,5.7-.7,1.7-1.6,3-2.8,4.2-1.2,1.1-2.6,2-4.3,2.6-1.7.6-3.5.9-5.6.9s-3.9-.3-5.6-.9c-1.7-.6-3.1-1.5-4.3-2.6-1.2-1.2-2.1-2.6-2.8-4.2-.7-1.7-1-3.5-1-5.6s.3-3.9,1-5.5c.7-1.7,1.6-3,2.8-4.2,1.2-1.2,2.7-2.1,4.3-2.7,1.7-.6,3.5-.9,5.6-.9s3.9.3,5.6,1c1.7.6,3.1,1.5,4.3,2.7,1.2,1.1,2.1,2.5,2.8,4.2.7,1.7,1,3.5,1,5.5ZM65.2,21.6c0,2.1.4,3.7,1.2,4.9.8,1.1,2,1.7,3.4,1.7s2.6-.6,3.3-1.7c.8-1.1,1.2-2.7,1.2-4.8s-.4-3.6-1.2-4.7c-.8-1.1-1.9-1.7-3.4-1.7s-2.6.6-3.4,1.7c-.8,1.1-1.2,2.7-1.2,4.7Z"/>
      <path fill="#000" d="M98.4,28.6c.6,0,1.2,0,1.9-.2.7-.1,1.3-.3,1.6-.5v-4.1l-3.7.3c-1,0-1.8.3-2.4.6-.6.3-.9.9-.9,1.5s.3,1.3.8,1.7c.6.4,1.5.6,2.8.6ZM98,8.3c1.9,0,3.6.2,5.1.6,1.6.4,2.9,1,4,1.8,1.1.8,2,1.7,2.5,2.9.6,1.2.9,2.6.9,4.2v11.6c0,.9-.3,1.6-.8,2.2-.5.6-1.1,1-1.8,1.4-2.3,1.3-5.4,2-9.5,2s-3.5-.2-5-.5c-1.5-.3-2.7-.9-3.8-1.5-1-.7-1.9-1.6-2.4-2.6-.6-1.1-.8-2.3-.8-3.7,0-2.4.7-4.2,2.1-5.5,1.4-1.3,3.6-2.1,6.6-2.4l6.8-.7v-.4c0-1-.4-1.7-1.4-2.1-.9-.4-2.1-.7-3.8-.7s-2.6.1-3.8.4c-1.2.3-2.4.6-3.4,1-.5-.3-.8-.8-1.1-1.4-.3-.7-.5-1.3-.5-2s.2-1.6.6-2.1c.5-.6,1.1-1,2-1.4,1-.4,2.2-.7,3.5-.8,1.4-.2,2.7-.3,3.9-.3Z"/>
      <path fill="#000" d="M130.3,18.2c0-1.1-.3-1.8-.9-2.3-.6-.5-1.4-.8-2.4-.8s-1.4,0-2.1.3c-.7.2-1.2.4-1.7.8v17.9c-.3.1-.9.2-1.7.3-.7.1-1.5.2-2.3.2s-1.5,0-2.1-.2c-.6-.1-1.1-.3-1.5-.6-.4-.3-.7-.7-1-1.2-.2-.6-.3-1.3-.3-2.1v-15.5c0-.9.2-1.7.6-2.3.4-.6,1-1.1,1.7-1.6,1.2-.8,2.7-1.5,4.4-2,1.8-.5,3.8-.8,6-.8,3.9,0,6.9.9,9,2.6,2.1,1.7,3.2,4,3.2,7.1v16.2c-.3.1-.9.2-1.7.3-.7.1-1.5.2-2.3.2s-1.5,0-2.1-.2c-.6-.1-1.1-.3-1.5-.6-.4-.3-.7-.7-1-1.2-.2-.6-.3-1.3-.3-2.1v-12.2Z"/>
      <path fill="#000" d="M28.2,15.1c0,0,.1,0,.2,0,0,0,.1,0,.2,0,1,0,1.9.3,2.4.8.6.5.9,1.3.9,2.3v12.2c0,.9.1,1.6.3,2.1.2.5.6.9,1,1.2.4.3.9.5,1.5.6.6.1,1.3.2,2.1.2s1.6,0,2.3-.2c.8-.1,1.3-.2,1.7-.3v-16.2c0-3-1.1-5.4-3.2-7.1-2.1-1.7-5.1-2.6-9.1-2.6s-.1,0-.2,0c0,0-.1,0-.2,0-3.9,0-6.9.9-9.1,2.6-2.1,1.7-3.2,4.1-3.2,7.1v7.7c.3.1.9.2,1.7.3.7.1,1.5.2,2.3.2s1.5,0,2.1-.2c.6-.1,1.1-.3,1.5-.6.4-.3.7-.7,1-1.2.2-.6.3-1.3.3-2.1v-3.7c0-1.1.3-1.8.9-2.3.6-.5,1.4-.8,2.4-.8Z"/>
      <path fill="#000" d="M12.6,27.7c0,0-.1,0-.2,0,0,0-.1,0-.2,0-1,0-1.9-.3-2.4-.8-.6-.5-.9-1.3-.9-2.3v-12.2c0-.9-.1-1.6-.3-2.1-.2-.5-.6-.9-1-1.2-.4-.3-.9-.5-1.5-.6-.6-.1-1.3-.2-2.1-.2s-1.6,0-2.3.2c-.8.1-1.3.2-1.7.3v16.2c0,3,1.1,5.4,3.2,7.1,2.1,1.7,5.1,2.6,9.1,2.6s.1,0,.2,0c0,0,.1,0,.2,0,3.9,0,6.9-.9,9.1-2.6,2.1-1.7,3.2-4.1,3.2-7.1v-7.7c-.3-.1-.9-.2-1.7-.3-.7-.1-1.5-.2-2.3-.2s-1.5,0-2.1.2c-.6.1-1.1.3-1.5.6-.4.3-.7.7-1,1.2-.2.6-.3,1.3-.3,2.1v3.7c0,1.1-.3,1.8-.9,2.3-.6.5-1.4.8-2.4.8Z"/>
    </g>
  </g>
</svg>
