<svg xmlns="http://www.w3.org/2000/svg" version="1.1" width="46" height="49" style=""><rect id="backgroundrect" width="100%" height="100%" x="0" y="0" fill="none" stroke="none"/>
    
<g class="currentLayer" style=""><title>Layer 1</title><g id="Page-1" stroke="none" stroke-width="1" fill="#c343a5" fill-rule="evenodd" class="" fill-opacity="1">
        <g id="Login" fill="#c343a5" transform="" fill-opacity="1">
            <g id="Page-1" transform="" fill="#c343a5" fill-opacity="1">
                <g id="Group-3" transform="" fill="#c343a5" fill-opacity="1">
                    <path d="M31.74969482421875,36.11135885119438 C30.6060791015625,34.35400411486626 27.37982177734375,34.55334493517876 24.8953857421875,34.07540914416313 C22.4951171875,33.61462423205376 20.17401123046875,33.072136133909225 18.04022216796875,32.03945943713188 C15.36517333984375,30.745338648557663 10.1776123046875,27.376877039670944 11.18505859375,23.21511098742485 C12.30560302734375,18.595016688108444 20.25653076171875,23.000244349241257 24.552978515625,21.519035547971725 C26.82452392578125,20.735542505979538 27.7552490234375,18.553344935178757 29.0078125,17.106453150510788 C31.480712890625,14.251877039670944 35.56756591796875,11.361358851194382 42.03326416015625,12.355636805295944 C43.18927001953125,12.53456136584282 44.35186767578125,12.938156336545944 45.45343017578125,13.523933619260788 C41.40118408203125,5.967567652463913 33.3743896484375,0.8172380328178406 24.1304931640625,0.8172380328178406 C10.80303955078125,0.8172380328178406 -0.00030517581035383046,11.514137476682663 -0.00030517581035383046,24.710212916135788 C-0.00030517581035383046,37.90383931994438 10.80303955078125,48.60318776965141 24.1304931640625,48.60318776965141 C24.837646484375,48.60318776965141 25.53570556640625,48.565605372190475 26.22711181640625,48.50759908556938 C28.88238525390625,45.17590352892876 32.48406982421875,41.83930227160454 31.74969482421875,36.11135885119438 " id="Fill-1" fill="#c343a5" fill-opacity="1"/>
                </g>
                <path d="M39.76409912109375,20.194366455078125 C39.76409912109375,21.195175170898438 38.9447021484375,22.006454467773438 37.9339599609375,22.006454467773438 C36.92401123046875,22.006454467773438 36.1046142578125,21.195175170898438 36.1046142578125,20.194366455078125 C36.1046142578125,19.19354248046875 36.92401123046875,18.38227081298828 37.9339599609375,18.38227081298828 C38.9447021484375,18.38227081298828 39.76409912109375,19.19354248046875 39.76409912109375,20.194366455078125 " id="Fill-4" fill="#c343a5" fill-opacity="1"/>
            </g>
        </g>
    </g></g></svg>