<svg height="30" viewBox="0 0 1920 292" fill="none" xmlns="http://www.w3.org/2000/svg">
<path d="M232.002 20.4437V40.8872H200.522H169.042V57.7753V74.6634H200.522H232.002V181.325V287.987H250.114H268.226V143.993V0.000183105H250.114H232.002V20.4437Z" fill="#181A1B"/>
<path d="M317.041 6.39969C316.524 9.77731 300.999 157.237 300.999 158.926C300.999 159.726 305.053 159.993 318.076 159.993H335.153L338.948 152.171C341.88 146.215 344.381 142.749 349.729 137.238C357.577 129.15 364.822 124.794 375.602 121.683C384.831 119.017 402.08 118.839 410.963 121.239C419.502 123.55 428.471 128.261 434.077 133.416C439.77 138.66 446.669 148.971 449.343 156.171C456.415 175.281 456.243 203.013 448.998 221.323C443.565 235.011 433.387 246.389 420.796 252.788C410.877 257.855 403.546 259.544 391.299 259.544C379.397 259.544 371.635 257.766 361.631 252.788C355.162 249.5 352.661 247.633 347.572 242.033C340.673 234.567 335.67 225.145 333.255 214.834L331.789 208.879H312.47C294.445 208.879 293.151 208.968 293.582 210.39C293.755 211.279 294.445 214.39 294.962 217.323C295.566 220.256 297.032 225.412 298.153 228.878C312.384 269.676 346.106 292.431 392.507 292.431C425.453 292.431 453.052 278.743 471.853 253.055C481.254 240.167 487.636 223.99 490.396 205.946C492.121 195.013 491.604 172.792 489.448 162.748C479.012 114.217 443.478 85.4183 396.302 87.3737C374.222 88.2626 357.663 95.1067 346.106 108.262C344.123 110.484 342.139 112.084 341.794 111.728C341.449 111.373 342.915 94.129 345.071 73.5077L348.866 35.9983L412.516 35.7317L476.079 35.5539V19.5546V3.55539H396.733H317.472L317.041 6.39969Z" fill="#181A1B"/>
<path d="M1122.07 47.1091C1122.07 67.5526 1121.55 70.8414 1118.18 73.7746C1116.98 74.8412 1112.92 75.1967 1099.3 75.5522L1081.96 75.9967L1081.7 92.1737L1081.53 108.44H1101.8H1122.07V179.103C1122.07 239.545 1122.24 250.833 1123.45 256.699C1126.81 274.121 1135.86 283.365 1152.86 286.742C1157.69 287.631 1166.83 287.987 1189.86 287.987H1220.39V271.988V255.988H1196.41C1168.55 255.988 1165.1 255.455 1161.14 250.033L1158.72 246.833L1158.46 177.592L1158.29 108.44H1189.34H1220.39L1220.21 92.1737L1219.96 75.9967L1189.17 75.73L1158.29 75.5522V51.5534V27.5545H1140.18H1122.07V47.1091Z" fill="#181A1B"/>
<path d="M772.765 72.5264C745.512 77.504 726.451 88.1702 712.307 106.48C702.13 119.635 696.955 130.479 692.643 147.545C686.605 171.988 687.123 198.298 694.367 222.653C704.545 257.051 728.521 280.961 761.208 289.494C769.833 291.716 771.989 291.983 786.565 291.983C800.882 291.894 803.469 291.716 811.576 289.583C838.744 282.561 859.098 266.384 870.482 243.096C872.897 238.119 877.123 226.653 877.123 225.142C877.123 225.053 869.016 224.875 859.184 224.875H841.159L837.45 232.519C832.62 242.652 825.548 250.118 816.492 254.651C806.833 259.362 799.674 260.695 785.702 260.162C775.87 259.896 772.938 259.451 766.814 257.318C749.306 251.185 735.334 236.519 729.297 217.764C726.969 210.476 724.467 198.743 724.467 195.099V192.876H802.003H879.538L880.056 190.921C881.005 187.188 880.573 171.722 879.28 161.589C876.692 141.59 871.862 127.457 862.548 112.791C850.215 93.3255 833.397 80.7927 811.662 74.9263C804.763 73.0597 801.054 72.6153 789.152 72.4375C781.304 72.2598 773.973 72.3487 772.765 72.5264ZM794.327 103.547C812.094 105.147 829.343 117.413 837.364 134.301C841.331 142.745 844.35 153.767 844.35 160.167V164.433H784.495H724.554L725.071 161.056C726.106 154.478 729.815 142.479 733.092 135.457C735.507 130.213 738.353 126.213 742.924 121.235C750.083 113.325 755.947 109.325 765.003 106.125C770.782 103.992 782.942 102.214 786.996 102.747C787.945 102.925 791.222 103.192 794.327 103.547Z" fill="#181A1B"/>
<path d="M985.623 73.6857C967.684 77.7744 952.505 87.5517 941.638 102.218C939.137 105.684 936.635 108.44 936.032 108.44C935.169 108.44 934.91 104.618 934.91 91.9959V75.5522H916.799H898.687V181.77V287.987H916.799H934.824L935.083 222.479L935.428 156.882L937.67 148.171C940.603 137.327 943.018 131.727 948.106 124.706C957.248 112.084 969.84 105.595 987.866 104.351C1015.21 102.395 1031.68 114.395 1036.77 139.905C1038.23 147.371 1038.41 153.06 1038.41 217.946V287.987H1056.52H1074.63V215.279C1074.63 156.082 1074.37 141.06 1073.34 134.216C1068.42 100.796 1053.59 81.952 1026.42 74.4856C1016.67 71.8191 995.8 71.3747 985.623 73.6857Z" fill="#181A1B"/>
<path d="M1626.18 73.4189C1601.42 78.2187 1582.02 90.2181 1567.96 109.417C1560.97 119.017 1557.09 126.572 1553.64 136.883C1542.26 171.548 1544.59 212.168 1559.77 241.5C1577.19 275.365 1608.93 293.586 1647.74 292.164C1675.51 291.187 1695.95 282.565 1713.28 264.521C1723.12 254.299 1732.17 238.478 1733.98 228.167L1734.59 224.879H1716.39C1701.73 224.879 1698.19 225.145 1698.19 226.034C1698.19 229.056 1692.24 239.011 1687.07 244.611C1677.32 255.366 1664.47 260.432 1647.13 260.432C1635.06 260.432 1626.26 258.566 1617.12 254.033C1611.08 251.1 1608.49 249.055 1602.29 242.655C1596.08 236.256 1594.18 233.5 1590.9 226.567C1586.67 217.412 1583.74 207.102 1582.88 198.391L1582.36 192.88H1660.07H1737.69L1738.3 185.947C1739.42 173.148 1736.23 149.771 1731.48 135.372C1723.03 109.862 1703.28 87.7293 1680.86 78.6631C1669.56 74.0411 1662.31 72.7078 1647.31 72.3523C1637.13 72.1745 1631.09 72.4412 1626.18 73.4189ZM1658.35 104.529C1676.03 108.351 1692.24 123.194 1698.28 141.06C1700.43 147.549 1702.5 157.415 1702.5 161.415V164.437H1642.48H1582.45L1583.05 160.615C1583.4 158.57 1584.6 153.504 1585.81 149.415C1593.49 121.95 1611.77 105.417 1636.96 103.195C1644.98 102.484 1650.24 102.84 1658.35 104.529Z" fill="#181A1B"/>
<path d="M1812.38 73.3298C1791.6 77.063 1773.83 86.6625 1763.13 99.7286C1752.01 113.328 1748.56 137.06 1755.11 154.482C1757.18 160.081 1758.99 163.103 1762.7 167.281C1773.91 179.725 1788.66 185.858 1821.52 191.547C1861.54 198.48 1874.39 203.457 1880.95 214.657C1883.28 218.656 1883.97 220.79 1884.31 225.767C1885.6 245.055 1871.11 258.388 1845.5 261.41C1829.46 263.277 1809.53 259.988 1799.96 253.944C1791.42 248.522 1784.95 239.455 1782.37 229.056L1781.25 224.434L1763.39 224.167L1745.63 223.989V226.389C1745.63 231.278 1748.47 240.7 1752.61 249.588C1763.91 273.676 1787.71 288.253 1821.35 291.631C1847.4 294.297 1873.18 289.675 1890.52 279.365C1898.2 274.743 1910.1 262.299 1913.29 255.632C1925.62 229.145 1921.57 200.524 1903.28 184.791C1890.86 174.125 1876.29 168.97 1838.25 161.859C1801.77 154.926 1792.03 150.571 1787.37 139.105C1784.61 132.172 1786.85 122.394 1792.8 115.461C1799.62 107.728 1810.83 103.462 1826.7 102.573C1853.78 100.973 1872.15 110.573 1877.41 129.061L1878.88 134.216H1896.38H1913.81V131.905C1913.81 129.061 1910.1 117.683 1907.42 112.172C1898.28 93.5956 1879.39 79.8184 1855.16 74.1298C1847.05 72.1743 1821.26 71.7299 1812.38 73.3298Z" fill="#181A1B"/>
<path d="M488.154 76.1744C488.154 76.7966 492.467 87.4628 544.991 217.323L573.366 287.542L594.41 287.809L615.454 287.987L641.414 222.923C655.731 187.103 674.791 139.46 683.847 117.061C694.456 90.4848 699.803 76.1744 699.113 75.9077C698.595 75.73 689.281 75.6411 678.414 75.73L658.75 75.9966L645.036 112.884C637.533 133.15 623.044 172.081 613.039 199.28C602.948 226.567 594.496 248.878 594.237 248.878C593.979 248.878 586.561 229.145 577.678 205.057C568.708 181.058 554.305 142.127 545.594 118.661L529.725 75.9966L508.94 75.73C497.555 75.6411 488.154 75.8188 488.154 76.1744Z" fill="#181A1B"/>
<path d="M1239.1 76.0812C1238.06 77.1479 1238.41 214.208 1239.44 223.719C1244.1 267.095 1266.87 290.382 1306.2 292.16C1318.27 292.693 1326.55 291.627 1336.56 288.071C1350.1 283.272 1362.78 273.583 1371.32 261.317C1373.47 258.384 1375.63 255.984 1376.23 255.984C1377.09 255.984 1377.35 259.628 1377.35 271.983V287.982H1395.46H1413.58L1413.4 182.032L1413.14 75.9924L1395.29 75.7257L1377.44 75.5479L1377.09 140.167C1376.83 201.675 1376.66 205.231 1375.02 212.875C1372.61 223.452 1370.28 229.763 1366.05 236.429C1359.24 247.273 1349.15 254.828 1336.82 258.295C1328.28 260.695 1311.55 260.517 1303.61 258.028C1290.5 253.851 1282.74 244.962 1278 229.23C1276.1 222.652 1276.1 222.208 1275.58 149.322L1275.15 75.9924L1257.38 75.7257C1247.64 75.6368 1239.44 75.8146 1239.1 76.0812Z" fill="#181A1B"/>
<path d="M1443.76 181.77V287.987H1461.88H1479.9L1480.16 221.057C1480.42 160.615 1480.59 153.504 1482.06 146.66C1484.99 132.261 1492.15 120.439 1501.38 114.928C1509.31 110.128 1514.4 109.062 1533.29 108.617L1550.71 108.262V91.907V75.5522H1542.77C1530.1 75.5522 1515.95 77.0633 1509.48 79.0188C1499.65 82.0408 1489.39 90.0405 1484.21 98.7512C1480.59 104.706 1480.07 103.551 1479.81 89.0627L1479.56 75.9967L1461.7 75.73L1443.76 75.5522V181.77Z" fill="#181A1B"/>
<path d="M0 101.862C0 102.129 10.7808 115.017 23.9765 130.483C37.0859 145.949 53.4727 165.237 60.2862 173.325C67.1859 181.414 73.0507 187.991 73.4819 187.991C74.3444 187.991 94.871 163.815 94.871 162.748C94.871 162.392 90.9037 157.415 86.0739 151.815C81.1578 146.126 69.6008 132.438 60.3724 121.505L43.5544 101.417H21.8203C9.83208 101.329 0 101.595 0 101.862Z" fill="#181A1B"/>
<path d="M141.702 125.505C130.404 138.838 118.761 152.526 115.829 155.904C112.81 159.281 110.395 162.392 110.395 162.659C110.395 163.637 131.18 187.991 131.957 187.991C132.647 187.991 140.667 178.658 181.376 130.661C192.76 117.239 203.024 105.151 204.231 103.728L206.473 101.329H184.394H162.229L141.702 125.505Z" fill="#181A1B"/>
<path d="M96.8548 178.392C93.5774 182.214 72.1021 207.546 49.1606 234.656C26.3053 261.766 6.72735 284.876 5.77864 285.942L4.05371 287.987H26.0465H48.0394L75.0345 255.988C89.9551 238.389 102.375 223.99 102.633 223.99C102.978 223.99 115.398 238.389 130.318 255.988L157.4 287.987H179.306C200.005 287.987 201.127 287.898 200.005 286.476C199.315 285.587 177.495 259.721 151.449 228.878C125.402 198.124 103.841 172.525 103.496 172.17C103.151 171.814 100.218 174.57 96.8548 178.392Z" fill="#181A1B"/>
</svg>
