<svg
    width="100"
    height="60"
    viewBox="0 0 50 32"
    fill="none"
    xmlns="http://www.w3.org/2000/svg"
>
    <path
        d="M23.0606 4.74219H25.9459V26.9574H23.0606V10.4588H18.0475V7.86889H23.0606V4.74219ZM31.0233 20.7959C31.3516 23.0905 33.0227 24.7616 35.7759 24.7616C38.4961 24.7616 40.7578 22.7952 40.7578 19.3211C40.7578 16.0433 39.0537 13.9137 35.9062 13.9137C33.8756 13.9137 32.0395 14.9298 31.3186 17.0595H28.5393L29.8508 4.99911H42.5018V7.49004H32.3747L31.7511 13.3561H31.8832C32.8333 12.1106 34.3741 11.4227 36.4377 11.4227C40.7647 11.4227 43.7143 14.6346 43.7143 19.1909C43.7143 24.1067 40.2071 27.2856 35.8819 27.2856C30.5057 27.2856 28.376 23.7784 27.9505 20.7959H31.0233ZM21.0629 12.5123H17.5541L13.3834 17.284L15.1413 19.2955L21.0629 12.5123ZM12.8172 17.9425L4.93615 26.9596H8.445L12.8172 21.9586L17.1894 26.9596H20.6982L12.8172 17.9425ZM4.57141 12.5123H8.08027L12.2509 17.284L10.4913 19.2955L4.57141 12.5123Z"
        fill="#181A1B"
    />
</svg>
