<svg width="359" height="107" viewBox="0 0 359 107" fill="none" xmlns="http://www.w3.org/2000/svg">
<path d="M14.0825 85H0.350516L23.4845 53.5773L1.09278 23.1443H14.8247L29.4227 44.7938L44.3918 23.1443H58.1237L35.732 53.5773L58.866 85H45.134L29.9175 62.2371L14.0825 85ZM98.1151 86.2371C74.4862 86.2371 60.878 69.1649 60.878 43.5567C60.878 17.9485 75.3522 0.876284 99.3522 0.876284C116.053 0.876284 128.053 9.41237 132.136 24.7526H120.507C117.29 15.3505 110.239 10.5258 99.4759 10.5258C82.28 10.5258 72.012 23.8866 72.012 43.5567C72.012 63.2268 81.9089 76.5876 99.1048 76.5876C114.198 76.5876 122.857 66.9381 122.857 50.6082H99.2285V41.701H133.002V85H124.218L123.6 73.2474H123.105C120.631 78.1959 112.713 86.2371 98.1151 86.2371ZM153.992 85H143.105V23.1443H153.992V30.8144H154.61C157.332 26.1134 161.414 23.1443 169.455 23.1443H175.27V32.5464H169.455C158.074 32.5464 153.992 38.1134 153.992 52.3402V85ZM228.683 46.0309C228.683 72.2577 228.436 78.3196 230.044 85H218.786C218.168 82.5258 217.92 80.4227 217.797 76.0928H217.178C213.343 82.1546 205.673 86.2371 197.013 86.2371C186.374 86.2371 175.858 80.1753 175.858 68.299C175.858 52.2165 194.539 48.3814 217.92 46.7732V43.9278C217.92 35.3918 212.972 30.6907 204.188 30.6907C197.137 30.6907 191.199 33.9072 189.343 40.7113H178.333C181.054 26.3608 193.426 21.9072 204.56 21.9072C219.281 21.9072 228.683 29.3299 228.683 46.0309ZM200.106 78.0722C209.879 78.0722 217.92 70.6495 217.92 59.7629V54.567C200.724 55.5567 187.24 58.4021 187.24 68.0515C187.24 74.6082 193.426 78.0722 200.106 78.0722ZM249.851 106.031H238.964V23.1443H249.851V32.299H250.469C254.428 25.9897 261.975 21.9072 270.634 21.9072C285.603 21.9072 298.346 33.2887 298.346 54.0722C298.346 74.8557 285.603 86.2371 270.634 86.2371C261.975 86.2371 254.428 82.1546 250.469 75.8454H249.851V106.031ZM249.851 54.0722C249.851 68.4227 258.14 76.7113 268.655 76.7113C279.665 76.7113 287.459 68.1753 287.459 54.0722C287.459 39.9691 279.665 31.433 268.655 31.433C258.14 31.433 249.851 39.1031 249.851 54.0722ZM316.159 85H305.149V2.1134H316.159V32.6701H316.778C320.861 26.1134 327.912 21.9072 336.696 21.9072C350.799 21.9072 358.098 30.1959 358.098 46.1546V85H347.211V47.6392C347.211 36.2577 342.51 31.3093 333.355 31.3093C323.211 31.3093 316.159 37.6186 316.159 51.5979V85Z" fill="#7E97A7"/>
</svg>
