<svg width="128" height="128" viewBox="24 36 80 52" fill="none" xmlns="http://www.w3.org/2000/svg">
<path d="M24 57.9263C24 57.9653 25.5795 59.8539 27.5128 62.1201C29.4335 64.3863 31.8343 67.2126 32.8326 68.3979C33.8434 69.5831 34.7027 70.5469 34.7659 70.5469C34.8922 70.5469 37.8996 67.0042 37.8996 66.848C37.8996 66.7959 37.3183 66.0665 36.6107 65.246C35.8905 64.4124 34.1972 62.4066 32.8452 60.8046L30.3812 57.8611H27.1969C25.4405 57.8481 24 57.8872 24 57.9263Z" fill="#24282B"/>
<path d="M44.7613 61.3907C43.106 63.3444 41.4001 65.3502 40.9705 65.8451C40.5282 66.34 40.1744 66.7959 40.1744 66.8349C40.1744 66.9782 43.2197 70.5469 43.3334 70.5469C43.4345 70.5469 44.6097 69.1793 50.5739 62.1462C52.2418 60.1795 53.7455 58.4082 53.9224 58.1998L54.2509 57.8481H51.0161H47.7687L44.7613 61.3907Z" fill="#24282B"/>
<path d="M38.1914 69.1402C37.7113 69.7002 34.5649 73.4122 31.2037 77.3846C27.8552 81.357 24.9868 84.7434 24.8478 84.8997L24.5951 85.1992H27.8173H31.0395L34.9945 80.5104C37.1805 77.9316 39.0001 75.8217 39.038 75.8217C39.0886 75.8217 40.9082 77.9316 43.0942 80.5104L47.0619 85.1992H50.2714C53.3041 85.1992 53.4683 85.1862 53.3041 84.9778C53.203 84.8476 50.0061 81.0575 46.19 76.538C42.3739 72.0316 39.2149 68.2806 39.1644 68.2285C39.1139 68.1764 38.6842 68.5801 38.1914 69.1402Z" fill="#24282B"/>
<path d="M69.8598 85.5361C76.1855 85.5361 79.6165 82.0515 80.6886 79.9072H80.9031L81.1711 85H84.9773V66.2371H70.3422V70.0969H80.5814C80.5814 77.1732 76.8288 81.3546 70.2886 81.3546C62.8371 81.3546 58.5484 75.5649 58.5484 67.0412C58.5484 58.5175 62.9979 52.7278 70.4495 52.7278C75.1134 52.7278 78.169 54.8186 79.5629 58.8928H84.602C82.833 52.2454 77.633 48.5464 70.3959 48.5464C59.9959 48.5464 53.7237 55.9443 53.7237 67.0412C53.7237 78.1381 59.6206 85.5361 69.8598 85.5361ZM93.6979 85V70.8474C93.6979 64.6825 95.467 62.2701 100.399 62.2701H102.919V58.1959H100.399C96.9144 58.1959 95.1453 59.4825 93.9659 61.5196H93.6979V58.1959H88.9804V85H93.6979Z" fill="#24282B"/>
</svg>
